<svg id="Camada_1" data-name="Camada 1" xmlns="http://www.w3.org/2000/svg" viewBox="0 0 77.06 77.48"><defs><style>.cls-1{fill:#030104;opacity:0.2;}.cls-2{fill:#ebebed;}.cls-3{fill:#953763;}.cls-4{fill:#a3426a;}.cls-5{fill:#8b2f49;}.cls-6{fill:#7f2744;}</style></defs><title>LAPIS</title><path class="cls-1" d="M494,79.13L480.34,65.47a3.14,3.14,0,0,0-4.44,0l-1,1a3.14,3.14,0,0,0,0,4.44l0.47,0.47L455.4,91.35a25.82,25.82,0,0,0-17.82,7.58l18.32,18.32,2.22,2.22L452.69,114l-18.37,25.21,25.21-18.37,14.69,14.69a25.82,25.82,0,0,0,7.58-17.82l19.93-19.93,0.47,0.47a3.14,3.14,0,0,0,4.44,0l1-1a3.14,3.14,0,0,0,0-4.44Z" transform="translate(-431.53 -61.77)"/><polygon class="cls-2" points="25.21 56.33 0 74.7 18.37 49.49 25.21 56.33"/><path class="cls-3" d="M471.43,96.15l-18.32,18.32,18.32,18.32A25.91,25.91,0,0,0,471.43,96.15Z" transform="translate(-431.53 -61.77)"/><path class="cls-4" d="M471.43,96.15a25.91,25.91,0,0,0-36.64,0l18.32,18.32,18.32-18.32h0Z" transform="translate(-431.53 -61.77)"/><rect class="cls-5" x="454.41" y="74.54" width="32.2" height="18.67" transform="translate(-353.03 295.5) rotate(-45)"/><rect class="cls-6" x="467.6" y="87.74" width="32.2" height="18.67" transform="translate(-358.5 308.7) rotate(-45)"/><path class="cls-4" d="M477.56,62.69a3.14,3.14,0,0,0-4.44,0l-1,1a3.14,3.14,0,0,0,0,4.44l13.67,13.67,5.47-5.47Z" transform="translate(-431.53 -61.77)"/><path class="cls-3" d="M491.23,76.35l-5.47,5.47,13.67,13.67a3.14,3.14,0,0,0,4.44,0l1-1a3.14,3.14,0,0,0,0-4.44Z" transform="translate(-431.53 -61.77)"/></svg>